<svg width="149" height="100" viewBox="0 0 149 100" fill="none" xmlns="http://www.w3.org/2000/svg">
<rect width="149" height="100" fill="#FFCC00"/>
<path d="M52.9622 20.9454C53.1032 19.1079 53.2542 17.3397 53.3648 15.569C53.4637 13.9867 53.444 13.9863 55.0121 13.9863C67.7423 13.9865 80.4725 13.9861 93.2027 13.9868C93.5178 13.9868 93.833 13.9935 94.148 14.0039C94.3977 14.0121 94.5838 14.1313 94.5854 14.3941C94.5895 15.0673 94.7036 15.7348 94.4008 16.4012C91.8266 22.0675 89.2746 27.744 86.7131 33.4161C86.0783 34.8219 86.0807 34.8028 84.6347 34.1812C80.4684 32.3902 76.2963 30.6128 72.1252 28.833C71.2206 28.447 71.2162 28.4517 71.6361 27.5216C73.236 23.9783 74.8382 20.436 76.4366 16.892C76.5455 16.6505 76.6306 16.3981 76.7164 16.1774C76.6413 16.0098 76.5238 15.9834 76.4 15.983C73.419 15.9726 70.4357 15.943 67.5138 16.6813C64.4062 17.4666 61.9454 19.1828 60.0403 21.7798C57.7581 24.891 55.9134 28.2526 54.2425 31.7161C53.9211 32.3822 53.4936 32.5775 52.821 32.5477C52.3844 32.5284 52.201 32.3738 52.2331 31.9324C52.4499 28.9496 52.6635 25.9666 52.8699 22.9831C52.9153 22.3278 52.9273 21.6701 52.9622 20.9454Z" fill="black"/>
<path d="M71.8809 72.3821C70.3537 72.3816 68.8991 72.3682 67.445 72.3879C66.9605 72.3944 66.7062 72.2132 66.5316 71.7519C65.7539 69.6977 63.8999 68.3566 61.8341 68.3092C59.7533 68.2614 57.8202 69.5549 56.9887 71.6349C56.7598 72.2076 56.462 72.4164 55.864 72.3925C54.8475 72.3517 53.8279 72.3645 52.8103 72.3873C52.2844 72.3991 52.0769 72.1958 52.0634 71.6629C52.0482 71.0628 52.1606 70.5143 52.408 69.9708C54.7231 64.8865 57.0302 59.7985 59.3366 54.7102C59.7277 53.8473 59.7141 53.8608 60.6036 54.2411C64.9503 56.0996 69.2997 57.9518 73.6516 59.7982C74.6369 60.2163 74.6493 60.2042 74.2037 61.2036C72.9468 64.0221 71.6842 66.8382 70.4245 69.6555C70.3566 69.8073 70.2421 69.9458 70.2846 70.1546C70.3302 70.1822 70.3872 70.2452 70.4477 70.2489C78.3012 70.7243 84.7306 68.0385 89.4786 61.6056C91.4196 58.9758 92.7251 56.0389 93.7283 52.9454C93.8523 52.563 93.8355 52.0479 94.3927 51.9086C95.3664 51.6653 95.6756 51.9147 95.6245 52.931C95.4459 56.4787 95.2396 60.0245 95.144 63.5769C95.0727 66.2268 94.8586 68.8726 94.7352 71.5215C94.7049 72.1722 94.449 72.38 93.799 72.4032C92.9769 72.4325 92.5064 72.257 92.1767 71.3834C91.4754 69.5251 89.4106 68.2131 87.4567 68.3204C85.2241 68.443 83.6084 69.5704 82.768 71.6696C82.5418 72.2345 82.2539 72.3922 81.6983 72.3894C78.4501 72.3726 75.2019 72.3817 71.8809 72.3821Z" fill="black"/>
<path d="M66.1355 39.6912C66.5315 38.8228 66.9202 38.0109 67.2661 37.1811C67.4762 36.677 67.7139 36.5567 68.2544 36.7905C72.438 38.6005 76.6378 40.3726 80.8285 42.1659C82.4513 42.8604 82.4638 42.8794 81.7594 44.4627C80.7221 46.7942 79.6437 49.1074 78.6139 51.4422C78.3606 52.0165 78.0758 52.1333 77.497 51.8831C73.0002 49.9397 68.4956 48.0144 63.985 46.1035C63.4816 45.8902 63.4041 45.6832 63.6416 45.1806C64.4924 43.3804 65.2915 41.5556 66.1355 39.6912Z" fill="black"/>
<path d="M91.7345 71.7367C92.6354 74.2426 91.5541 76.7587 89.2178 77.6918C86.8723 78.6287 84.2628 77.524 83.3181 75.1943C82.3914 72.9091 83.4741 70.2326 85.7194 69.2581C88.0462 68.2482 90.5894 69.2768 91.7345 71.7367Z" fill="black"/>
<path d="M60.916 68.8489C63.0702 68.6177 64.7154 69.3775 65.708 71.2455C66.594 72.9127 66.4333 74.5885 65.3014 76.1206C64.1156 77.7257 62.0004 78.3217 60.0956 77.6222C58.162 76.9122 56.9971 75.0468 57.1537 72.911C57.2959 70.9709 58.6957 69.3716 60.644 68.9228C60.7146 68.9065 60.7841 68.8847 60.916 68.8489Z" fill="black"/>
<path d="M73.1676 83.0189C73.1695 82.1917 73.1668 81.4374 73.175 80.6831C73.1803 80.1966 73.2201 79.7024 72.6226 79.4976C72.9096 79.0573 73.2775 79.3247 73.5858 79.2827C74.4331 79.1675 75.2785 79.2497 76.1205 79.3495C76.83 79.4335 77.5661 79.5421 77.8288 80.3478C78.0834 81.1284 77.8267 81.7834 77.1431 82.2305C77.1687 82.5419 77.4357 82.5621 77.5973 82.6843C78.5875 83.4326 78.4375 84.9323 77.2982 85.4248C75.8646 86.0445 74.3674 85.7965 72.7679 85.7812C73.4046 84.8741 73.0772 83.96 73.1676 83.0189ZM76.1991 83.8515C76.2117 83.4015 76.1905 82.9572 75.7235 82.7213C75.4573 82.5868 75.1558 82.5635 75.1402 82.9652C75.1095 83.7559 75.1312 84.5486 75.1312 85.3401C76.0667 85.3154 76.1955 85.1359 76.1991 83.8515ZM75.7451 81.9506C76.0542 81.3507 75.9325 80.7175 75.8628 80.0966C75.8373 79.8693 75.6486 79.7087 75.3909 79.7334C75.1235 79.7591 75.1255 79.9792 75.1237 80.1746C75.119 80.7102 75.1198 81.2459 75.1231 81.7815C75.1261 82.2552 75.3441 82.2618 75.7451 81.9506Z" fill="black"/>
<path d="M67.6712 83.3173C67.6139 82.6361 67.838 81.9855 67.3965 81.4398C67.534 81.2187 67.7458 81.3051 67.9265 81.276C68.8284 81.1311 69.7424 81.6675 70.6432 81.2245C70.7345 81.1796 70.8816 81.2321 70.9983 81.2594C72.1072 81.5181 72.5937 82.5972 72.3477 84.2443C72.1882 85.3129 71.4514 85.9272 70.3897 85.8735C70.1523 85.8614 69.9153 85.84 69.6828 85.8232C69.4352 87.116 69.4691 87.1891 70.7105 87.8002C69.4944 88.1106 68.4134 87.7222 67.2407 87.9848C67.9409 86.8837 67.5755 85.8061 67.6577 84.7737C67.6942 84.3148 67.6684 83.8509 67.6712 83.3173ZM70.3576 82.1156C70.2895 81.9552 70.2153 81.7632 69.9984 81.8808C69.7503 82.0153 69.6101 82.2571 69.6047 82.5401C69.5907 83.2699 69.5948 84.0001 69.5957 84.7302C69.5961 85.0123 69.6445 85.3207 69.9772 85.3389C70.3956 85.3617 70.3726 84.9899 70.3911 84.7068C70.445 83.8804 70.4519 83.0534 70.3576 82.1156Z" fill="black"/>
<path d="M61.1477 81.1669C61.3363 80.6729 61.6395 80.2773 61.6751 79.7528C60.3313 79.4933 60.0478 80.6425 59.4075 81.561C59.0879 80.7633 59.3056 80.1296 59.3871 79.5341C59.443 79.1256 59.9185 79.3012 60.2039 79.2738C61.2186 79.1763 62.2355 79.2496 63.2528 79.2746C63.9419 79.2916 63.9763 79.5724 63.7428 80.0894C63.113 81.4842 62.484 82.8793 61.8623 84.2778C61.7275 84.5812 61.5224 84.8661 61.5433 85.2826C62.8851 85.4585 63.2588 84.3595 63.9255 83.3688C64.1261 84.2186 64.12 84.8933 63.9274 85.5558C63.8496 85.8235 63.5413 85.8124 63.298 85.8131C62.159 85.8165 61.0199 85.826 59.8811 85.8112C59.2144 85.8025 59.1275 85.638 59.4138 85.0007C59.9809 83.738 60.5536 82.4779 61.1477 81.1669Z" fill="black"/>
<path d="M87.3224 84.9147C86.4743 86.0175 85.1265 86.2482 83.9923 85.5297C83.0865 84.9559 82.7425 83.4335 83.2788 82.3722C83.6301 81.6769 84.7866 81.0697 85.6161 81.145C86.5277 81.2278 87.1746 81.7286 87.3961 82.5229C87.5857 83.2028 87.4317 83.4311 86.7404 83.4664C86.4746 83.48 86.2039 83.4331 85.9413 83.4643C85.5964 83.5052 85.0768 83.2676 85.019 83.8745C84.9685 84.4035 84.9236 85.0182 85.5365 85.2679C86.0049 85.4587 86.4899 85.3696 86.8377 84.9108C86.9745 84.7304 86.9464 84.4106 87.2726 84.377C87.5431 84.5028 87.3969 84.692 87.3224 84.9147ZM85.68 82.7218C85.6703 82.3317 85.8186 81.8875 85.3362 81.6408C84.9058 81.884 85.0382 82.286 85.011 82.6295C84.9979 82.7943 84.987 82.9929 85.1912 83.0638C85.4092 83.1395 85.5645 83.0408 85.68 82.7218Z" fill="black"/>
<path d="M78.8676 85.0387C78.2381 83.8997 78.2764 82.7433 78.9353 81.9952C79.5968 81.244 80.8387 80.9897 81.8138 81.3948C82.2411 81.5723 82.5375 81.8714 82.7123 82.2954C83.0545 83.1253 82.8259 83.4669 81.9282 83.4698C81.7104 83.4705 81.4884 83.437 81.2758 83.469C80.9528 83.5177 80.4688 83.2819 80.3836 83.8251C80.2996 84.3612 80.3092 84.9578 80.8564 85.2487C81.278 85.4727 81.7473 85.3743 82.1276 85.013C82.3122 84.8377 82.319 84.4952 82.784 84.4325C82.7747 85.0684 82.392 85.3992 81.9499 85.6472C81.0085 86.1754 79.7068 85.919 78.8676 85.0387ZM80.4059 82.9532C80.6358 83.1953 80.8939 83.1399 80.9709 82.8696C81.0888 82.4554 81.1977 81.9866 80.7355 81.6503C80.2541 81.9686 80.3701 82.4245 80.4059 82.9532Z" fill="black"/>
<path d="M65.3732 85.8145C65.0755 85.7902 64.8237 85.8735 64.5712 85.6656C64.9898 84.9956 64.865 84.232 64.8206 83.5036C64.7781 82.8058 65.1451 82.0011 64.293 81.3318C65.0712 81.3318 65.7253 81.3037 66.3752 81.344C66.688 81.3634 66.6752 81.6799 66.6764 81.9233C66.6811 82.8236 66.6778 83.724 66.6818 84.6243C66.6834 84.9816 66.6124 85.3569 67.0198 85.6478C66.4366 85.9263 65.9251 85.7619 65.3732 85.8145Z" fill="black"/>
<path d="M66.7159 80.1802C66.6157 80.5848 66.3467 80.7388 66.037 80.827C65.469 80.9888 64.9751 80.7359 64.8252 80.2238C64.6662 79.6811 64.9502 79.1856 65.4904 79.0629C66.0694 78.9314 66.5727 79.2185 66.7066 79.767C66.7345 79.8814 66.7223 80.0057 66.7159 80.1802Z" fill="black"/>
</svg>
