<?xml version="1.0" encoding="UTF-8"?>
<svg version="1.1" xmlns="http://www.w3.org/2000/svg" width="264" height="293">
<path d="M0 0 C12.54 0 25.08 0 38 0 C38.061875 5.341875 38.12375 10.68375 38.1875 16.1875 C38.22846802 18.70346802 38.22846802 18.70346802 38.27026367 21.27026367 C38.27903182 22.61115806 38.28667498 23.95206047 38.29296875 25.29296875 C38.3159906 26.32339294 38.3159906 26.32339294 38.33947754 27.37463379 C38.3418696 31.79117129 37.67792257 34.47846692 35 38 C32.94906399 39.90404465 30.91796702 41.68152671 28.75 43.4375 C28.16299316 43.92629639 27.57598633 44.41509277 26.97119141 44.91870117 C24.66673362 46.83546031 22.35352505 48.72837265 19.9765625 50.5546875 C9.33358257 58.91332052 2.33599151 71.29933643 -4 83 C-4.9903841 84.67239861 -5.98685821 86.34128921 -7 88 C-9.62890468 85.97198782 -12.05531177 83.94323265 -14.375 81.5625 C-22.97329292 73.16892834 -33.92160797 68.88884915 -46 69 C-58.06565876 69.64035619 -69.14628373 74.8717966 -78 83 C-85.69153852 92.48521747 -89.80280213 103.87067942 -89.3203125 116.09375 C-88.01237449 127.96089488 -83.45263999 138.63085217 -74.7421875 146.88671875 C-63.24818222 155.7446345 -51.21942936 158.19471854 -37 157 C-26.08771723 154.84949382 -15.85063357 148.85010078 -9 140 C-3.64634302 131.16769954 -1.1527151 123.36257444 -0.71972656 113.12548828 C0.33138904 88.84688507 9.78062189 68.33217943 27.5 51.5625 C46.41461121 35.27857185 68.83425526 32.70903951 93 34 C108.38385867 35.57657988 123.57027308 42.62128246 135 53 C135.59167969 53.45761719 136.18335938 53.91523438 136.79296875 54.38671875 C138 56 138 56 137.80029297 58.17382812 C136.8066956 61.68263933 135.1884747 64.67988663 133.40234375 67.83203125 C133.04862198 68.46864182 132.69490021 69.10525238 132.33045959 69.76115417 C131.20578541 71.78186809 130.07181979 73.79718783 128.9375 75.8125 C128.17060343 77.18650279 127.40432056 78.56084832 126.63867188 79.93554688 C124.76619717 83.2943745 122.88537515 86.64839796 121 90 C117.61983365 88.87327788 117.11013182 88.10762071 115 85.375 C107.29437092 76.35811892 97.32922222 71.77752366 85.65234375 70.6875 C73.60699502 70.26064379 62.2871784 73.06720179 53 81 C42.36749945 91.23378178 39.17102418 101.66444052 38.125 116.0625 C36.40912998 135.74858386 30.3215602 152.20411693 17 167 C16.40960938 167.68320312 15.81921875 168.36640625 15.2109375 169.0703125 C1.97149168 183.43651966 -18.48177001 192.4565093 -37.8125 193.31640625 C-64.0892629 194.0256144 -85.27207126 186.69214368 -104.5234375 168.6328125 C-120.86139147 151.62572731 -126.71135371 129.9502491 -126.3046875 106.96484375 C-125.63755051 89.40701124 -117.62018057 73.90620846 -106 61 C-105.40960938 60.31679687 -104.81921875 59.63359375 -104.2109375 58.9296875 C-90.105264 43.62353115 -68.07605271 34.90089652 -47.5703125 33.87890625 C-34.52781442 33.55756934 -23.08875912 36.30961329 -11 41 C-7.37 42.32 -3.74 43.64 0 45 C0 30.15 0 15.3 0 0 Z " fill="#FFFFFF" transform="translate(126,99)"/>
<path d="M0 0 C3.91911236 1.35022422 6.51624484 3.09363888 9.625 5.8125 C20.5904617 14.85448491 32.15329025 17.18299542 46 16 C53.04667539 14.5415205 59.08477502 11.72031959 65.0625 7.7578125 C67 7 67 7 68.90917969 7.7644043 C71.01983855 9.01172383 72.6203717 10.32116272 74.390625 12.01171875 C75.01445068 12.60194824 75.63827637 13.19217773 76.28100586 13.80029297 C76.93077393 14.42307129 77.58054199 15.04584961 78.25 15.6875 C79.5889703 16.95535016 80.92880651 18.22228651 82.26953125 19.48828125 C82.91100098 20.09494629 83.5524707 20.70161133 84.21337891 21.32666016 C87.39682723 24.30826098 90.67679311 27.17580501 94 30 C91.3694856 38.40877918 82.6848023 43.3432424 75.25 47.3125 C65.4688098 51.88552399 54.79394539 54.56673518 44 55 C42.96939453 55.05994141 42.96939453 55.05994141 41.91796875 55.12109375 C19.80380058 55.81857215 -0.32703993 48.24977498 -17 34 C-16.39634018 30.13474919 -15.23290304 27.14873371 -13.41796875 23.69140625 C-12.89783203 22.69689453 -12.37769531 21.70238281 -11.84179688 20.67773438 C-11.29587891 19.64970703 -10.74996094 18.62167969 -10.1875 17.5625 C-9.65318359 16.53833984 -9.11886719 15.51417969 -8.56835938 14.45898438 C-5.93613367 9.45678424 -3.26878945 4.61429601 0 0 Z " fill="#FFFFFF" transform="translate(169,238)"/>
<path d="M0 0 C5.04153942 2.83209983 8.56276714 6.99845402 10.75 12.375 C11.44099988 18.81834954 11.60541772 24.92423702 7.75 30.375 C3.88840554 34.86279897 0.21733254 37.93892444 -5.796875 38.6953125 C-12.95271639 38.99182526 -18.35384212 37.82389486 -23.78125 33.01953125 C-27.60993429 28.86807997 -29.16062474 24.58725215 -29.31640625 18.98828125 C-29.00374925 12.80146245 -27.44740209 8.01141608 -23.25 3.375 C-16.34284814 -1.85080568 -8.01861058 -3.66695474 0 0 Z " fill="#FFFFFF" transform="translate(90.25,193.625)"/>
<path d="M0 0 C3.96 0 7.92 0 12 0 C12 4.29 12 8.58 12 13 C8.04 13 4.08 13 0 13 C0 8.71 0 4.42 0 0 Z " fill="#FFFFFF" transform="translate(152,70)"/>
<path d="M0 0 C3.96 0 7.92 0 12 0 C12 4.29 12 8.58 12 13 C8.04 13 4.08 13 0 13 C0 8.71 0 4.42 0 0 Z " fill="#FFFFFF" transform="translate(139,70)"/>
<path d="M0 0 C3.96 0 7.92 0 12 0 C12 4.29 12 8.58 12 13 C8.04 13 4.08 13 0 13 C0 8.71 0 4.42 0 0 Z " fill="#FFFFFF" transform="translate(152,56)"/>
<path d="M0 0 C3.96 0 7.92 0 12 0 C12 4.29 12 8.58 12 13 C8.04 13 4.08 13 0 13 C0 8.71 0 4.42 0 0 Z " fill="#FFFFFF" transform="translate(139,56)"/>
<path d="M0 0 C3.96 0 7.92 0 12 0 C12.09765625 9.27734375 12.09765625 9.27734375 12 12 C11 13 11 13 8.49609375 13.09765625 C5.6640625 13.06510417 2.83203125 13.03255208 0 13 C0 8.71 0 4.42 0 0 Z " fill="#FFFFFF" transform="translate(139,42)"/>
<path d="M0 0 C3.96 0 7.92 0 12 0 C12 3.96 12 7.92 12 12 C8.04 12 4.08 12 0 12 C0 8.04 0 4.08 0 0 Z " fill="#FFFFFF" transform="translate(152,85)"/>
<path d="M0 0 C3.96 0 7.92 0 12 0 C12 3.96 12 7.92 12 12 C8.04 12 4.08 12 0 12 C0 8.04 0 4.08 0 0 Z " fill="#FFFFFF" transform="translate(139,85)"/>
<path d="M0 0 C3.63 0 7.26 0 11 0 C11 4.29 11 8.58 11 13 C7.37 13 3.74 13 0 13 C0 8.71 0 4.42 0 0 Z " fill="#FFFFFF" transform="translate(126,70)"/>
<path d="M0 0 C3.63 0 7.26 0 11 0 C11 4.29 11 8.58 11 13 C7.37 13 3.74 13 0 13 C0 8.71 0 4.42 0 0 Z " fill="#FFFFFF" transform="translate(126,56)"/>
<path d="M0 0 C3.63 0 7.26 0 11 0 C11 4.29 11 8.58 11 13 C7.37 13 3.74 13 0 13 C0 8.71 0 4.42 0 0 Z " fill="#FFFFFF" transform="translate(126,42)"/>
<path d="M0 0 C3.63 0 7.26 0 11 0 C11 4.29 11 8.58 11 13 C7.37 13 3.74 13 0 13 C0 8.71 0 4.42 0 0 Z " fill="#FFFFFF" transform="translate(126,28)"/>
<path d="M0 0 C3.63 0 7.26 0 11 0 C11 3.96 11 7.92 11 12 C7.37 12 3.74 12 0 12 C0 8.04 0 4.08 0 0 Z " fill="#FFFFFF" transform="translate(126,85)"/>
<path d="M0 0 C3.63 0 7.26 0 11 0 C11 3.96 11 7.92 11 12 C7.37 12 3.74 12 0 12 C0 8.04 0 4.08 0 0 Z " fill="#FFFFFF" transform="translate(126,14)"/>
<path d="M0 0 C3.63 0 7.26 0 11 0 C11 3.96 11 7.92 11 12 C7.37 12 3.74 12 0 12 C0 8.04 0 4.08 0 0 Z " fill="#FFFFFF" transform="translate(126,0)"/>
</svg>
