<svg width="149" height="100" viewBox="0 0 149 100" fill="none" xmlns="http://www.w3.org/2000/svg">
<rect width="149" height="100" fill="#FFCC00"/>
<path d="M52.9593 20.9454C53.1003 19.1079 53.2512 17.3397 53.3619 15.569C53.4607 13.9867 53.4411 13.9863 55.0092 13.9863C67.7394 13.9865 80.4696 13.9861 93.1998 13.9868C93.5149 13.9868 93.8301 13.9935 94.145 14.0039C94.3948 14.0121 94.5809 14.1313 94.5825 14.3941C94.5866 15.0673 94.7006 15.7348 94.3979 16.4012C91.8237 22.0675 89.2717 27.744 86.7102 33.4161C86.0753 34.8219 86.0777 34.8028 84.6318 34.1812C80.4655 32.3902 76.2934 30.6128 72.1223 28.833C71.2177 28.447 71.2132 28.4517 71.6332 27.5216C73.2331 23.9783 74.8352 20.436 76.4336 16.892C76.5426 16.6505 76.6277 16.3981 76.7135 16.1774C76.6383 16.0098 76.5209 15.9834 76.3971 15.983C73.4161 15.9726 70.4328 15.943 67.5108 16.6813C64.4033 17.4666 61.9424 19.1828 60.0374 21.7798C57.7551 24.891 55.9105 28.2526 54.2395 31.7161C53.9182 32.3822 53.4907 32.5775 52.8181 32.5477C52.3814 32.5284 52.198 32.3738 52.2301 31.9324C52.4469 28.9496 52.6606 25.9666 52.867 22.9831C52.9123 22.3278 52.9244 21.6701 52.9593 20.9454Z" fill="black"/>
<path d="M71.8814 72.3821C70.3542 72.3816 68.8996 72.3682 67.4454 72.3879C66.961 72.3944 66.7067 72.2132 66.532 71.7519C65.7544 69.6977 63.9004 68.3566 61.8346 68.3092C59.7538 68.2614 57.8207 69.5549 56.9892 71.6349C56.7603 72.2076 56.4625 72.4164 55.8645 72.3925C54.848 72.3517 53.8284 72.3645 52.8108 72.3873C52.2849 72.3991 52.0774 72.1958 52.0639 71.6629C52.0486 71.0628 52.1611 70.5143 52.4085 69.9708C54.7236 64.8865 57.0307 59.7985 59.337 54.7102C59.7282 53.8473 59.7145 53.8608 60.6041 54.2411C64.9508 56.0996 69.3002 57.9518 73.6521 59.7982C74.6374 60.2163 74.6498 60.2042 74.2041 61.2036C72.9473 64.0221 71.6847 66.8382 70.425 69.6555C70.3571 69.8073 70.2426 69.9458 70.2851 70.1546C70.3307 70.1822 70.3877 70.2452 70.4482 70.2489C78.3017 70.7243 84.7311 68.0385 89.4791 61.6056C91.4201 58.9758 92.7256 56.0389 93.7287 52.9454C93.8527 52.563 93.836 52.0479 94.3931 51.9086C95.3669 51.6653 95.6761 51.9147 95.625 52.931C95.4464 56.4787 95.2401 60.0245 95.1445 63.5769C95.0732 66.2268 94.859 68.8726 94.7357 71.5215C94.7054 72.1722 94.4495 72.38 93.7995 72.4032C92.9774 72.4325 92.5069 72.257 92.1772 71.3834C91.4759 69.5251 89.4111 68.2131 87.4572 68.3204C85.2246 68.443 83.6089 69.5704 82.7685 71.6696C82.5423 72.2345 82.2544 72.3922 81.6988 72.3894C78.4506 72.3726 75.2024 72.3817 71.8814 72.3821Z" fill="black"/>
<path d="M66.1384 39.6912C66.5345 38.8228 66.9231 38.0109 67.269 37.1811C67.4791 36.677 67.7169 36.5567 68.2573 36.7905C72.4409 38.6005 76.6407 40.3726 80.8314 42.1659C82.4542 42.8604 82.4667 42.8794 81.7624 44.4627C80.7251 46.7942 79.6467 49.1074 78.6168 51.4422C78.3635 52.0165 78.0787 52.1333 77.4999 51.8831C73.0031 49.9397 68.4985 48.0144 63.9879 46.1035C63.4845 45.8902 63.407 45.6832 63.6446 45.1806C64.4954 43.3804 65.2944 41.5556 66.1384 39.6912Z" fill="black"/>
<path d="M91.7326 71.7367C92.6335 74.2426 91.5521 76.7587 89.2159 77.6918C86.8703 78.6287 84.2609 77.524 83.3161 75.1943C82.3894 72.9091 83.4721 70.2326 85.7174 69.2581C88.0443 68.2482 90.5875 69.2768 91.7326 71.7367Z" fill="black"/>
<path d="M60.917 68.8489C63.0712 68.6177 64.7164 69.3775 65.709 71.2455C66.595 72.9127 66.4343 74.5885 65.3024 76.1206C64.1165 77.7257 62.0014 78.3217 60.0966 77.6222C58.163 76.9122 56.9981 75.0468 57.1547 72.911C57.2969 70.9709 58.6967 69.3716 60.6449 68.9228C60.7156 68.9065 60.7851 68.8847 60.917 68.8489Z" fill="black"/>
<path d="M73.17 83.0189C73.1719 82.1917 73.1693 81.4374 73.1775 80.6831C73.1827 80.1966 73.2226 79.7024 72.625 79.4976C72.912 79.0573 73.2799 79.3247 73.5883 79.2827C74.4355 79.1675 75.2809 79.2497 76.123 79.3495C76.8324 79.4335 77.5685 79.5421 77.8312 80.3478C78.0858 81.1284 77.8292 81.7834 77.1456 82.2305C77.1711 82.5419 77.4382 82.5621 77.5998 82.6843C78.59 83.4326 78.4399 84.9323 77.3006 85.4248C75.867 86.0445 74.3698 85.7965 72.7704 85.7812C73.4071 84.8741 73.0796 83.96 73.17 83.0189ZM76.2015 83.8515C76.2142 83.4015 76.1929 82.9572 75.726 82.7213C75.4598 82.5868 75.1582 82.5635 75.1426 82.9652C75.112 83.7559 75.1336 84.5486 75.1336 85.3401C76.0691 85.3154 76.1979 85.1359 76.2015 83.8515ZM75.7475 81.9506C76.0567 81.3507 75.9349 80.7175 75.8652 80.0966C75.8397 79.8693 75.651 79.7087 75.3933 79.7334C75.1259 79.7591 75.1279 79.9792 75.1262 80.1746C75.1215 80.7102 75.1223 81.2459 75.1256 81.7815C75.1285 82.2552 75.3465 82.2618 75.7475 81.9506Z" fill="black"/>
<path d="M67.6727 83.3173C67.6154 82.6361 67.8395 81.9855 67.398 81.4398C67.5355 81.2187 67.7472 81.3051 67.928 81.276C68.8299 81.1311 69.7438 81.6675 70.6447 81.2245C70.7359 81.1796 70.8831 81.2321 70.9997 81.2594C72.1087 81.5181 72.5952 82.5972 72.3492 84.2443C72.1896 85.3129 71.4528 85.9272 70.3912 85.8735C70.1538 85.8614 69.9168 85.84 69.6842 85.8232C69.4366 87.116 69.4706 87.1891 70.7119 87.8002C69.4959 88.1106 68.4148 87.7222 67.2422 87.9848C67.9424 86.8837 67.5769 85.8061 67.6592 84.7737C67.6957 84.3148 67.6699 83.8509 67.6727 83.3173ZM70.3591 82.1156C70.291 81.9552 70.2167 81.7632 69.9999 81.8808C69.7518 82.0153 69.6115 82.2571 69.6061 82.5401C69.5922 83.2699 69.5962 84.0001 69.5972 84.7302C69.5975 85.0123 69.6459 85.3207 69.9786 85.3389C70.397 85.3617 70.3741 84.9899 70.3926 84.7068C70.4465 83.8804 70.4534 83.0534 70.3591 82.1156Z" fill="black"/>
<path d="M61.1511 81.1669C61.3397 80.6729 61.6429 80.2773 61.6785 79.7528C60.3347 79.4933 60.0512 80.6425 59.411 81.561C59.0913 80.7633 59.309 80.1296 59.3905 79.5341C59.4464 79.1256 59.922 79.3012 60.2073 79.2738C61.2221 79.1763 62.2389 79.2496 63.2562 79.2746C63.9453 79.2916 63.9797 79.5724 63.7462 80.0894C63.1164 81.4842 62.4874 82.8793 61.8658 84.2778C61.7309 84.5812 61.5258 84.8661 61.5467 85.2826C62.8886 85.4585 63.2622 84.3595 63.9289 83.3688C64.1295 84.2186 64.1234 84.8933 63.9308 85.5558C63.853 85.8235 63.5447 85.8124 63.3015 85.8131C62.1625 85.8165 61.0233 85.826 59.8845 85.8112C59.2178 85.8025 59.1309 85.638 59.4172 85.0007C59.9843 83.738 60.557 82.4779 61.1511 81.1669Z" fill="black"/>
<path d="M87.3219 84.9147C86.4738 86.0175 85.126 86.2482 83.9918 85.5297C83.086 84.9559 82.742 83.4335 83.2783 82.3722C83.6296 81.6769 84.7861 81.0697 85.6156 81.145C86.5272 81.2278 87.1741 81.7286 87.3956 82.5229C87.5852 83.2028 87.4312 83.4311 86.7399 83.4664C86.4741 83.48 86.2034 83.4331 85.9408 83.4643C85.5959 83.5052 85.0763 83.2676 85.0185 83.8745C84.9681 84.4035 84.9231 85.0182 85.536 85.2679C86.0044 85.4587 86.4894 85.3696 86.8372 84.9108C86.974 84.7304 86.9459 84.4106 87.2721 84.377C87.5426 84.5028 87.3964 84.692 87.3219 84.9147ZM85.6795 82.7218C85.6699 82.3317 85.8181 81.8875 85.3357 81.6408C84.9053 81.884 85.0377 82.286 85.0105 82.6295C84.9975 82.7943 84.9865 82.9929 85.1907 83.0638C85.4087 83.1395 85.5641 83.0408 85.6795 82.7218Z" fill="black"/>
<path d="M78.8642 85.0387C78.2347 83.8997 78.273 82.7433 78.9319 81.9952C79.5934 81.244 80.8353 80.9897 81.8104 81.3948C82.2377 81.5723 82.5341 81.8714 82.7089 82.2954C83.0511 83.1253 82.8224 83.4669 81.9248 83.4698C81.707 83.4705 81.485 83.437 81.2724 83.469C80.9493 83.5177 80.4654 83.2819 80.3802 83.8251C80.2962 84.3612 80.3058 84.9578 80.853 85.2487C81.2746 85.4727 81.7439 85.3743 82.1242 85.013C82.3088 84.8377 82.3156 84.4952 82.7806 84.4325C82.7713 85.0684 82.3886 85.3992 81.9465 85.6472C81.0051 86.1754 79.7034 85.919 78.8642 85.0387ZM80.4025 82.9532C80.6324 83.1953 80.8905 83.1399 80.9675 82.8696C81.0854 82.4554 81.1943 81.9866 80.732 81.6503C80.2507 81.9686 80.3667 82.4245 80.4025 82.9532Z" fill="black"/>
<path d="M65.3771 85.8145C65.0794 85.7902 64.8276 85.8735 64.5751 85.6656C64.9937 84.9956 64.8689 84.232 64.8245 83.5036C64.782 82.8058 65.149 82.0011 64.2969 81.3318C65.0751 81.3318 65.7293 81.3037 66.3791 81.344C66.6919 81.3634 66.6791 81.6799 66.6803 81.9233C66.685 82.8236 66.6817 83.724 66.6857 84.6243C66.6873 84.9816 66.6163 85.3569 67.0237 85.6478C66.4405 85.9263 65.929 85.7619 65.3771 85.8145Z" fill="black"/>
<path d="M66.7159 80.1802C66.6157 80.5848 66.3467 80.7388 66.037 80.827C65.469 80.9888 64.9751 80.7359 64.8252 80.2238C64.6662 79.6811 64.9502 79.1856 65.4904 79.0629C66.0694 78.9314 66.5727 79.2185 66.7066 79.767C66.7345 79.8814 66.7223 80.0057 66.7159 80.1802Z" fill="black"/>
</svg>
